{
  "accessors": [
    {
      "bufferView": 2,
      "componentType": 5126,
      "count": 174,
      "max": [
        0.43563878536224365,
        0.43563878536224365,
        0.7232024073600769
      ],
      "min": [
        -0.43563878536224365,
        -0.43563878536224365,
        0.16059274971485138
      ],
      "type": "VEC3"
    },
    {
      "bufferView": 2,
      "byteOffset": 2088,
      "componentType": 5126,
      "count": 174,
      "max": [
        0.9672221541404724,
        0.9672222137451172,
        1.0
      ],
      "min": [
        -0.9672221541404724,
        -0.9672222137451172,
        -1.0
      ],
      "type": "VEC3"
    },
    {
      "bufferView": 1,
      "componentType": 5126,
      "count": 174,
      "max": [
        0.8536081910133362,
        0.5713685750961304
      ],
      "min": [
        0.19698454439640045,
        0.04005289077758789
      ],
      "type": "VEC2"
    },
    {
      "bufferView": 0,
      "componentType": 5125,
      "count": 294,
      "type": "SCALAR"
    },
    {
      "bufferView": 2,
      "byteOffset": 4176,
      "componentType": 5126,
      "count": 564,
      "max": [
        0.35914045572280884,
        0.10859501361846924,
        0.08700035512447357
      ],
      "min": [
        -0.09976306557655334,
        -0.07957160472869873,
        -0.13418233394622803
      ],
      "type": "VEC3"
    },
    {
      "bufferView": 2,
      "byteOffset": 10944,
      "componentType": 5126,
      "count": 564,
      "max": [
        0.9528552293777466,
        0.9912981390953064,
        0.9772236347198486
      ],
      "min": [
        -0.952855110168457,
        -0.9912980198860168,
        -0.9772236347198486
      ],
      "type": "VEC3"
    },
    {
      "bufferView": 1,
      "byteOffset": 1392,
      "componentType": 5126,
      "count": 564,
      "max": [
        0.8425461649894714,
        0.5461843013763428
      ],
      "min": [
        0.448210746049881,
        0.12827962636947632
      ],
      "type": "VEC2"
    },
    {
      "bufferView": 0,
      "byteOffset": 1176,
      "componentType": 5125,
      "count": 564,
      "type": "SCALAR"
    },
    {
      "bufferView": 2,
      "byteOffset": 17712,
      "componentType": 5126,
      "count": 564,
      "max": [
        0.35914045572280884,
        0.10859501361846924,
        0.08700035512447357
      ],
      "min": [
        -0.09976306557655334,
        -0.07957160472869873,
        -0.13418233394622803
      ],
      "type": "VEC3"
    },
    {
      "bufferView": 2,
      "byteOffset": 24480,
      "componentType": 5126,
      "count": 564,
      "max": [
        0.9528552293777466,
        0.9912981390953064,
        0.9772236347198486
      ],
      "min": [
        -0.952855110168457,
        -0.9912980198860168,
        -0.9772236347198486
      ],
      "type": "VEC3"
    },
    {
      "bufferView": 1,
      "byteOffset": 5904,
      "componentType": 5126,
      "count": 564,
      "max": [
        0.8425461649894714,
        0.5461843013763428
      ],
      "min": [
        0.448210746049881,
        0.12827962636947632
      ],
      "type": "VEC2"
    },
    {
      "bufferView": 0,
      "byteOffset": 3432,
      "componentType": 5125,
      "count": 564,
      "type": "SCALAR"
    },
    {
      "bufferView": 2,
      "byteOffset": 31248,
      "componentType": 5126,
      "count": 564,
      "max": [
        0.35914045572280884,
        0.10859501361846924,
        0.08700035512447357
      ],
      "min": [
        -0.09976306557655334,
        -0.07957160472869873,
        -0.13418233394622803
      ],
      "type": "VEC3"
    },
    {
      "bufferView": 2,
      "byteOffset": 38016,
      "componentType": 5126,
      "count": 564,
      "max": [
        0.9528552293777466,
        0.9912981390953064,
        0.9772236347198486
      ],
      "min": [
        -0.952855110168457,
        -0.9912980198860168,
        -0.9772236347198486
      ],
      "type": "VEC3"
    },
    {
      "bufferView": 1,
      "byteOffset": 10416,
      "componentType": 5126,
      "count": 564,
      "max": [
        0.8425461649894714,
        0.5461843013763428
      ],
      "min": [
        0.448210746049881,
        0.12827962636947632
      ],
      "type": "VEC2"
    },
    {
      "bufferView": 0,
      "byteOffset": 5688,
      "componentType": 5125,
      "count": 564,
      "type": "SCALAR"
    },
    {
      "bufferView": 2,
      "byteOffset": 44784,
      "componentType": 5126,
      "count": 564,
      "max": [
        0.35914045572280884,
        0.10859501361846924,
        0.08700035512447357
      ],
      "min": [
        -0.09976306557655334,
        -0.07957160472869873,
        -0.13418233394622803
      ],
      "type": "VEC3"
    },
    {
      "bufferView": 2,
      "byteOffset": 51552,
      "componentType": 5126,
      "count": 564,
      "max": [
        0.9528552293777466,
        0.9912981390953064,
        0.9772236347198486
      ],
      "min": [
        -0.952855110168457,
        -0.9912980198860168,
        -0.9772236347198486
      ],
      "type": "VEC3"
    },
    {
      "bufferView": 1,
      "byteOffset": 14928,
      "componentType": 5126,
      "count": 564,
      "max": [
        0.8425461649894714,
        0.5461843013763428
      ],
      "min": [
        0.448210746049881,
        0.12827962636947632
      ],
      "type": "VEC2"
    },
    {
      "bufferView": 0,
      "byteOffset": 7944,
      "componentType": 5125,
      "count": 564,
      "type": "SCALAR"
    },
    {
      "bufferView": 2,
      "byteOffset": 58320,
      "componentType": 5126,
      "count": 564,
      "max": [
        0.35914045572280884,
        0.10859501361846924,
        0.08700035512447357
      ],
      "min": [
        -0.09976306557655334,
        -0.07957160472869873,
        -0.13418233394622803
      ],
      "type": "VEC3"
    },
    {
      "bufferView": 2,
      "byteOffset": 65088,
      "componentType": 5126,
      "count": 564,
      "max": [
        0.9528552293777466,
        0.9912981390953064,
        0.9772236347198486
      ],
      "min": [
        -0.952855110168457,
        -0.9912980198860168,
        -0.9772236347198486
      ],
      "type": "VEC3"
    },
    {
      "bufferView": 1,
      "byteOffset": 19440,
      "componentType": 5126,
      "count": 564,
      "max": [
        0.8425461649894714,
        0.5461843013763428
      ],
      "min": [
        0.448210746049881,
        0.12827962636947632
      ],
      "type": "VEC2"
    },
    {
      "bufferView": 0,
      "byteOffset": 10200,
      "componentType": 5125,
      "count": 564,
      "type": "SCALAR"
    },
    {
      "bufferView": 2,
      "byteOffset": 71856,
      "componentType": 5126,
      "count": 564,
      "max": [
        0.35914045572280884,
        0.10859501361846924,
        0.08700035512447357
      ],
      "min": [
        -0.09976306557655334,
        -0.07957160472869873,
        -0.13418233394622803
      ],
      "type": "VEC3"
    },
    {
      "bufferView": 2,
      "byteOffset": 78624,
      "componentType": 5126,
      "count": 564,
      "max": [
        0.9528552293777466,
        0.9912981390953064,
        0.9772236347198486
      ],
      "min": [
        -0.952855110168457,
        -0.9912980198860168,
        -0.9772236347198486
      ],
      "type": "VEC3"
    },
    {
      "bufferView": 1,
      "byteOffset": 23952,
      "componentType": 5126,
      "count": 564,
      "max": [
        0.8425461649894714,
        0.5461843013763428
      ],
      "min": [
        0.448210746049881,
        0.12827962636947632
      ],
      "type": "VEC2"
    },
    {
      "bufferView": 0,
      "byteOffset": 12456,
      "componentType": 5125,
      "count": 564,
      "type": "SCALAR"
    },
    {
      "bufferView": 2,
      "byteOffset": 85392,
      "componentType": 5126,
      "count": 564,
      "max": [
        0.35914045572280884,
        0.10859501361846924,
        0.08700035512447357
      ],
      "min": [
        -0.09976306557655334,
        -0.07957160472869873,
        -0.13418233394622803
      ],
      "type": "VEC3"
    },
    {
      "bufferView": 2,
      "byteOffset": 92160,
      "componentType": 5126,
      "count": 564,
      "max": [
        0.9528552293777466,
        0.9912981390953064,
        0.9772236347198486
      ],
      "min": [
        -0.952855110168457,
        -0.9912980198860168,
        -0.9772236347198486
      ],
      "type": "VEC3"
    },
    {
      "bufferView": 1,
      "byteOffset": 28464,
      "componentType": 5126,
      "count": 564,
      "max": [
        0.8425461649894714,
        0.5461843013763428
      ],
      "min": [
        0.448210746049881,
        0.12827962636947632
      ],
      "type": "VEC2"
    },
    {
      "bufferView": 0,
      "byteOffset": 14712,
      "componentType": 5125,
      "count": 564,
      "type": "SCALAR"
    },
    {
      "bufferView": 2,
      "byteOffset": 98928,
      "componentType": 5126,
      "count": 564,
      "max": [
        0.35914045572280884,
        0.10859501361846924,
        0.08700035512447357
      ],
      "min": [
        -0.09976306557655334,
        -0.07957160472869873,
        -0.13418233394622803
      ],
      "type": "VEC3"
    },
    {
      "bufferView": 2,
      "byteOffset": 105696,
      "componentType": 5126,
      "count": 564,
      "max": [
        0.9528552293777466,
        0.9912981390953064,
        0.9772236347198486
      ],
      "min": [
        -0.952855110168457,
        -0.9912980198860168,
        -0.9772236347198486
      ],
      "type": "VEC3"
    },
    {
      "bufferView": 1,
      "byteOffset": 32976,
      "componentType": 5126,
      "count": 564,
      "max": [
        0.8425461649894714,
        0.5461843013763428
      ],
      "min": [
        0.448210746049881,
        0.12827962636947632
      ],
      "type": "VEC2"
    },
    {
      "bufferView": 0,
      "byteOffset": 16968,
      "componentType": 5125,
      "count": 564,
      "type": "SCALAR"
    }
  ],
  "asset": {
    "extras": {
      "author": "oksanaArthouse (https://sketchfab.com/oksanaArthouse)",
      "license": "CC-BY-4.0 (http://creativecommons.org/licenses/by/4.0/)",
      "source": "https://sketchfab.com/3d-models/low-poly-chicken-kfc-e592e4ca2d6648cf99f159a7f5d345fe",
      "title": "Low poly chicken Kfc"
    },
    "generator": "Sketchfab-15.29.0",
    "version": "2.0"
  },
  "bufferViews": [
    {
      "buffer": 0,
      "byteLength": 19224,
      "name": "floatBufferViews",
      "target": 34963
    },
    {
      "buffer": 0,
      "byteLength": 37488,
      "byteOffset": 19224,
      "byteStride": 8,
      "name": "floatBufferViews",
      "target": 34962
    },
    {
      "buffer": 0,
      "byteLength": 112464,
      "byteOffset": 56712,
      "byteStride": 12,
      "name": "floatBufferViews",
      "target": 34962
    }
  ],
  "buffers": [
    {
      "byteLength": 169176,
      "uri": "scene.bin"
    }
  ],
  "images": [
    {
      "uri": "textures/mMaterialO_baseColor.png"
    }
  ],
  "materials": [
    {
      "doubleSided": true,
      "name": "mMaterialO",
      "pbrMetallicRoughness": {
        "baseColorTexture": {
          "index": 0
        },
        "metallicFactor": 0.0,
        "roughnessFactor": 0.8211145618000169
      }
    }
  ],
  "meshes": [
    {
      "name": "box_mMaterialO_0",
      "primitives": [
        {
          "attributes": {
            "NORMAL": 1,
            "POSITION": 0,
            "TEXCOORD_0": 2
          },
          "indices": 3,
          "material": 0,
          "mode": 4
        }
      ]
    },
    {
      "name": "mChicken leg_mMaterialO_0",
      "primitives": [
        {
          "attributes": {
            "NORMAL": 5,
            "POSITION": 4,
            "TEXCOORD_0": 6
          },
          "indices": 7,
          "material": 0,
          "mode": 4
        }
      ]
    },
    {
      "name": "mChicken leg.001_mMaterialO_0",
      "primitives": [
        {
          "attributes": {
            "NORMAL": 9,
            "POSITION": 8,
            "TEXCOORD_0": 10
          },
          "indices": 11,
          "material": 0,
          "mode": 4
        }
      ]
    },
    {
      "name": "mChicken leg.002_mMaterialO_0",
      "primitives": [
        {
          "attributes": {
            "NORMAL": 13,
            "POSITION": 12,
            "TEXCOORD_0": 14
          },
          "indices": 15,
          "material": 0,
          "mode": 4
        }
      ]
    },
    {
      "name": "mChicken leg.003_mMaterialO_0",
      "primitives": [
        {
          "attributes": {
            "NORMAL": 17,
            "POSITION": 16,
            "TEXCOORD_0": 18
          },
          "indices": 19,
          "material": 0,
          "mode": 4
        }
      ]
    },
    {
      "name": "mChicken leg.004_mMaterialO_0",
      "primitives": [
        {
          "attributes": {
            "NORMAL": 21,
            "POSITION": 20,
            "TEXCOORD_0": 22
          },
          "indices": 23,
          "material": 0,
          "mode": 4
        }
      ]
    },
    {
      "name": "mChicken leg.005_mMaterialO_0",
      "primitives": [
        {
          "attributes": {
            "NORMAL": 25,
            "POSITION": 24,
            "TEXCOORD_0": 26
          },
          "indices": 27,
          "material": 0,
          "mode": 4
        }
      ]
    },
    {
      "name": "mChicken leg.006_mMaterialO_0",
      "primitives": [
        {
          "attributes": {
            "NORMAL": 29,
            "POSITION": 28,
            "TEXCOORD_0": 30
          },
          "indices": 31,
          "material": 0,
          "mode": 4
        }
      ]
    },
    {
      "name": "mChicken leg.007_mMaterialO_0",
      "primitives": [
        {
          "attributes": {
            "NORMAL": 33,
            "POSITION": 32,
            "TEXCOORD_0": 34
          },
          "indices": 35,
          "material": 0,
          "mode": 4
        }
      ]
    }
  ],
  "nodes": [
    {
      "children": [
        1
      ],
      "matrix": [
        1.0,
        0.0,
        0.0,
        0.0,
        0.0,
        2.220446049250313e-16,
        -1.0,
        0.0,
        0.0,
        1.0,
        2.220446049250313e-16,
        0.0,
        0.0,
        0.0,
        0.0,
        1.0
      ],
      "name": "Sketchfab_model"
    },
    {
      "children": [
        2
      ],
      "matrix": [
        0.009999999776482582,
        0.0,
        0.0,
        0.0,
        0.0,
        0.0,
        0.009999999776482582,
        0.0,
        0.0,
        -0.009999999776482582,
        0.0,
        0.0,
        0.0,
        0.0,
        0.0,
        1.0
      ],
      "name": "kfc2.fbx"
    },
    {
      "children": [
        3,
        5,
        7,
        9,
        11,
        13,
        15,
        17,
        19
      ],
      "name": "RootNode"
    },
    {
      "children": [
        4
      ],
      "matrix": [
        100.0,
        0.0,
        0.0,
        0.0,
        -0.0,
        -2.8212996916465727e-05,
        -99.99999999999602,
        0.0,
        0.0,
        99.99999999999602,
        -2.8212996916465727e-05,
        0.0,
        -2.798570394515991,
        -47.545562744140625,
        -4.2465362548828125,
        1.0
      ],
      "name": "box"
    },
    {
      "mesh": 0,
      "name": "box_mMaterialO_0"
    },
    {
      "children": [
        6
      ],
      "matrix": [
        100.0,
        0.0,
        0.0,
        0.0,
        -0.0,
        -2.8212996916465727e-05,
        -99.99999999999602,
        0.0,
        0.0,
        99.99999999999602,
        -2.8212996916465727e-05,
        0.0,
        -30.557310104370117,
        6.50167989730835,
        -28.291919708251953,
        1.0
      ],
      "name": "mChicken leg"
    },
    {
      "mesh": 1,
      "name": "mChicken leg_mMaterialO_0"
    },
    {
      "children": [
        8
      ],
      "matrix": [
        -31.651703622694537,
        -55.401333710629395,
        -76.99910311727393,
        0.0,
        -13.601441711652678,
        -77.68303371564704,
        61.48451455626296,
        0.0,
        -93.87850181209407,
        29.933891301515132,
        17.052627387701087,
        0.0,
        -21.924604415893555,
        15.968996047973633,
        2.9712166786193848,
        1.0
      ],
      "name": "mChicken leg.001"
    },
    {
      "mesh": 2,
      "name": "mChicken leg.001_mMaterialO_0"
    },
    {
      "children": [
        10
      ],
      "matrix": [
        96.18817629252345,
        -18.835885338937267,
        19.825379968510113,
        0.0,
        19.383564777392383,
        -4.178325423324216,
        -98.01437388107212,
        0.0,
        19.29024397141101,
        98.12110410929961,
        -0.3679889881941456,
        0.0,
        -32.845603942871094,
        15.968996047973633,
        22.950944900512695,
        1.0
      ],
      "name": "mChicken leg.002"
    },
    {
      "mesh": 3,
      "name": "mChicken leg.002_mMaterialO_0"
    },
    {
      "children": [
        12
      ],
      "matrix": [
        -42.33128901411288,
        32.440248574667585,
        84.59131584825111,
        0.0,
        88.83435577461157,
        -3.472836326894576,
        45.78640754719125,
        0.0,
        17.790943725236673,
        94.52813419496619,
        -27.3479915369499,
        0.0,
        25.330961227416992,
        11.603264808654785,
        -31.451086044311523,
        1.0
      ],
      "name": "mChicken leg.003"
    },
    {
      "mesh": 4,
      "name": "mChicken leg.003_mMaterialO_0"
    },
    {
      "children": [
        14
      ],
      "matrix": [
        -66.92156896138944,
        -20.881256384350362,
        -71.31251793113313,
        0.0,
        -68.07557974930405,
        -21.24126718109276,
        70.10366616902128,
        0.0,
        -29.786208734899063,
        95.46088331520906,
        -4.707771713002147e-05,
        0.0,
        25.83431053161621,
        4.167657852172852,
        19.243379592895508,
        1.0
      ],
      "name": "mChicken leg.004"
    },
    {
      "mesh": 5,
      "name": "mChicken leg.004_mMaterialO_0"
    },
    {
      "children": [
        16
      ],
      "matrix": [
        -35.02399310350952,
        -20.88124647362603,
        -91.30878916441706,
        0.0,
        -89.51374355274028,
        -21.241302329870905,
        39.19309016120364,
        0.0,
        -27.57917540497666,
        95.46087871959739,
        -11.252030580521986,
        0.0,
        5.752216339111328,
        16.882997512817383,
        23.7313232421875,
        1.0
      ],
      "name": "mChicken leg.005"
    },
    {
      "mesh": 6,
      "name": "mChicken leg.005_mMaterialO_0"
    },
    {
      "children": [
        18
      ],
      "matrix": [
        -72.50369336155238,
        -18.068852997591684,
        -66.45849080655837,
        0.0,
        -66.48485167270869,
        -6.817596755212134,
        74.38603243071688,
        0.0,
        -17.97157613456054,
        98.11745737982147,
        -7.07004120778384,
        0.0,
        5.752216339111328,
        -11.149949073791504,
        16.802845001220703,
        1.0
      ],
      "name": "mChicken leg.006"
    },
    {
      "mesh": 7,
      "name": "mChicken leg.006_mMaterialO_0"
    },
    {
      "children": [
        20
      ],
      "matrix": [
        -35.02399894966881,
        -77.70204387046756,
        52.30403307514181,
        0.0,
        -89.51374110933756,
        44.20859880203942,
        5.73510858221302,
        0.0,
        -27.57917251779747,
        -44.810625549468725,
        -85.03761259125291,
        0.0,
        6.618677139282227,
        1.4584839344024658,
        -32.83262634277344,
        1.0
      ],
      "name": "mChicken leg.007"
    },
    {
      "mesh": 8,
      "name": "mChicken leg.007_mMaterialO_0"
    }
  ],
  "samplers": [
    {
      "magFilter": 9729,
      "minFilter": 9987,
      "wrapS": 10497,
      "wrapT": 10497
    }
  ],
  "scene": 0,
  "scenes": [
    {
      "name": "Sketchfab_Scene",
      "nodes": [
        0
      ]
    }
  ],
  "textures": [
    {
      "sampler": 0,
      "source": 0
    }
  ]
}
