{
  "accessors": [
    {
      "bufferView": 1,
      "componentType": 5126,
      "count": 203,
      "max": [
        51.43299865722656,
        -3.0,
        -31.98699951171875
      ],
      "min": [
        49.0,
        -6.0,
        -43.98699951171875
      ],
      "type": "VEC3"
    },
    {
      "bufferView": 1,
      "byteOffset": 2436,
      "componentType": 5126,
      "count": 203,
      "max": [
        0.9999468922615051,
        0.0029062479734420776,
        0.999995768070221
      ],
      "min": [
        -0.9999527931213379,
        -1.0,
        -0.9914236068725586
      ],
      "type": "VEC3"
    },
    {
      "bufferView": 0,
      "componentType": 5125,
      "count": 591,
      "type": "SCALAR"
    },
    {
      "bufferView": 1,
      "byteOffset": 4872,
      "componentType": 5126,
      "count": 4105,
      "max": [
        63.0,
        -3.0,
        25.0
      ],
      "min": [
        -2.0,
        -6.0,
        -38.909000396728516
      ],
      "type": "VEC3"
    },
    {
      "bufferView": 1,
      "byteOffset": 54132,
      "componentType": 5126,
      "count": 4105,
      "max": [
        1.0,
        1.0,
        1.0
      ],
      "min": [
        -0.9999988675117493,
        -1.0,
        -1.0
      ],
      "type": "VEC3"
    },
    {
      "bufferView": 0,
      "byteOffset": 2364,
      "componentType": 5125,
      "count": 11631,
      "type": "SCALAR"
    },
    {
      "bufferView": 1,
      "byteOffset": 103392,
      "componentType": 5126,
      "count": 2270,
      "max": [
        73.0,
        -3.0,
        40.0
      ],
      "min": [
        -7.0,
        -4.0,
        -39.457298278808594
      ],
      "type": "VEC3"
    },
    {
      "bufferView": 1,
      "byteOffset": 130632,
      "componentType": 5126,
      "count": 2270,
      "max": [
        1.0,
        1.0,
        0.9999942779541016
      ],
      "min": [
        -1.0,
        -1.0,
        -1.0
      ],
      "type": "VEC3"
    },
    {
      "bufferView": 0,
      "byteOffset": 48888,
      "componentType": 5125,
      "count": 6459,
      "type": "SCALAR"
    },
    {
      "bufferView": 1,
      "byteOffset": 157872,
      "componentType": 5126,
      "count": 4431,
      "max": [
        75.0,
        -0.0,
        42.0
      ],
      "min": [
        -14.0,
        -3.0,
        -49.0
      ],
      "type": "VEC3"
    },
    {
      "bufferView": 1,
      "byteOffset": 211044,
      "componentType": 5126,
      "count": 4431,
      "max": [
        0.9999396204948425,
        1.0,
        0.9999967813491821
      ],
      "min": [
        -0.9999723434448242,
        -1.0,
        -0.9999549388885498
      ],
      "type": "VEC3"
    },
    {
      "bufferView": 0,
      "byteOffset": 74724,
      "componentType": 5125,
      "count": 13068,
      "type": "SCALAR"
    },
    {
      "bufferView": 1,
      "byteOffset": 264216,
      "componentType": 5126,
      "count": 3045,
      "max": [
        64.0,
        -0.0,
        36.0
      ],
      "min": [
        -0.7490000128746033,
        -6.0,
        -36.0
      ],
      "type": "VEC3"
    },
    {
      "bufferView": 1,
      "byteOffset": 300756,
      "componentType": 5126,
      "count": 3045,
      "max": [
        1.0,
        1.0,
        1.0
      ],
      "min": [
        -1.0,
        -1.0,
        -0.9994379281997681
      ],
      "type": "VEC3"
    },
    {
      "bufferView": 0,
      "byteOffset": 126996,
      "componentType": 5125,
      "count": 8427,
      "type": "SCALAR"
    },
    {
      "bufferView": 1,
      "byteOffset": 337296,
      "componentType": 5126,
      "count": 2820,
      "max": [
        78.0,
        -0.0,
        45.0
      ],
      "min": [
        -16.0,
        -6.0,
        -49.900001525878906
      ],
      "type": "VEC3"
    },
    {
      "bufferView": 1,
      "byteOffset": 371136,
      "componentType": 5126,
      "count": 2820,
      "max": [
        0.9999999403953552,
        1.0,
        1.0
      ],
      "min": [
        -1.0,
        -1.0,
        -1.0
      ],
      "type": "VEC3"
    },
    {
      "bufferView": 0,
      "byteOffset": 160704,
      "componentType": 5125,
      "count": 12507,
      "type": "SCALAR"
    },
    {
      "bufferView": 1,
      "byteOffset": 404976,
      "componentType": 5126,
      "count": 4636,
      "max": [
        65.0,
        -3.0,
        37.76100158691406
      ],
      "min": [
        -9.0,
        -6.0,
        -43.0
      ],
      "type": "VEC3"
    },
    {
      "bufferView": 1,
      "byteOffset": 460608,
      "componentType": 5126,
      "count": 4636,
      "max": [
        0.9999313354492188,
        0.00023528726887889206,
        1.0
      ],
      "min": [
        -0.9999999403953552,
        -1.0,
        -0.9999998807907104
      ],
      "type": "VEC3"
    },
    {
      "bufferView": 0,
      "byteOffset": 210732,
      "componentType": 5125,
      "count": 13170,
      "type": "SCALAR"
    },
    {
      "bufferView": 1,
      "byteOffset": 516240,
      "componentType": 5126,
      "count": 3167,
      "max": [
        68.0,
        -3.0,
        39.82270050048828
      ],
      "min": [
        -1.9950000047683716,
        -5.0,
        -43.0
      ],
      "type": "VEC3"
    },
    {
      "bufferView": 1,
      "byteOffset": 554244,
      "componentType": 5126,
      "count": 3167,
      "max": [
        0.9999998807907104,
        1.0,
        0.9991669654846191
      ],
      "min": [
        -0.9999994039535522,
        -1.0,
        -0.9999950528144836
      ],
      "type": "VEC3"
    },
    {
      "bufferView": 0,
      "byteOffset": 263412,
      "componentType": 5125,
      "count": 8988,
      "type": "SCALAR"
    }
  ],
  "asset": {
    "extras": {
      "author": "Pasha (https://sketchfab.com/homxis-mydqyp-juNke0)",
      "license": "SKETCHFAB Standard (https://sketchfab.com/licenses)",
      "source": "https://sketchfab.com/3d-models/pizza-218c28d25002438ba32444615f4129c0",
      "title": "Pizza"
    },
    "generator": "Sketchfab-16.68.0",
    "version": "2.0"
  },
  "bufferViews": [
    {
      "buffer": 0,
      "byteLength": 299364,
      "name": "floatBufferViews",
      "target": 34963
    },
    {
      "buffer": 0,
      "byteLength": 592248,
      "byteOffset": 299364,
      "byteStride": 12,
      "name": "floatBufferViews",
      "target": 34962
    }
  ],
  "buffers": [
    {
      "byteLength": 891612,
      "uri": "scene.bin"
    }
  ],
  "extensionsUsed": [
    "KHR_materials_specular"
  ],
  "materials": [
    {
      "doubleSided": true,
      "name": "color_14093196",
      "pbrMetallicRoughness": {
        "baseColorFactor": [
          0.843137,
          0.0431373,
          0.54902,
          1.0
        ],
        "metallicFactor": 0.0
      }
    },
    {
      "doubleSided": true,
      "name": "color_14105246",
      "pbrMetallicRoughness": {
        "baseColorFactor": [
          0.843137,
          0.227451,
          0.619608,
          1.0
        ],
        "metallicFactor": 0.0
      }
    },
    {
      "doubleSided": true,
      "name": "color_15277357",
      "pbrMetallicRoughness": {
        "baseColorFactor": [
          0.913725,
          0.113725,
          0.176471,
          1.0
        ],
        "metallicFactor": 0.0
      }
    },
    {
      "doubleSided": true,
      "extensions": {
        "KHR_materials_specular": {
          "specularColorFactor": [
            1.0,
            1.0,
            1.0
          ],
          "specularFactor": 0.0
        }
      },
      "name": "color_16089887",
      "pbrMetallicRoughness": {
        "baseColorFactor": [
          0.960784,
          0.513726,
          0.121569,
          1.0
        ],
        "metallicFactor": 0.0
      }
    },
    {
      "doubleSided": true,
      "name": "color_16311991",
      "pbrMetallicRoughness": {
        "baseColorFactor": [
          0.972549,
          0.901961,
          0.717647,
          1.0
        ],
        "metallicFactor": 0.0
      }
    },
    {
      "doubleSided": true,
      "name": "color_16765696",
      "pbrMetallicRoughness": {
        "baseColorFactor": [
          1.0,
          0.827451,
          0.0,
          1.0
        ],
        "metallicFactor": 0.0
      }
    },
    {
      "doubleSided": true,
      "name": "color_16768282",
      "pbrMetallicRoughness": {
        "baseColorFactor": [
          1.0,
          0.866667,
          0.101961,
          1.0
        ],
        "metallicFactor": 0.0
      }
    },
    {
      "doubleSided": true,
      "name": "color_4634441",
      "pbrMetallicRoughness": {
        "baseColorFactor": [
          0.27451,
          0.717647,
          0.286275,
          1.0
        ],
        "metallicFactor": 0.0
      }
    }
  ],
  "meshes": [
    {
      "name": "Object_0",
      "primitives": [
        {
          "attributes": {
            "NORMAL": 1,
            "POSITION": 0
          },
          "indices": 2,
          "material": 0,
          "mode": 4
        }
      ]
    },
    {
      "name": "Object_1",
      "primitives": [
        {
          "attributes": {
            "NORMAL": 4,
            "POSITION": 3
          },
          "indices": 5,
          "material": 1,
          "mode": 4
        }
      ]
    },
    {
      "name": "Object_2",
      "primitives": [
        {
          "attributes": {
            "NORMAL": 7,
            "POSITION": 6
          },
          "indices": 8,
          "material": 2,
          "mode": 4
        }
      ]
    },
    {
      "name": "Object_3",
      "primitives": [
        {
          "attributes": {
            "NORMAL": 10,
            "POSITION": 9
          },
          "indices": 11,
          "material": 3,
          "mode": 4
        }
      ]
    },
    {
      "name": "Object_4",
      "primitives": [
        {
          "attributes": {
            "NORMAL": 13,
            "POSITION": 12
          },
          "indices": 14,
          "material": 4,
          "mode": 4
        }
      ]
    },
    {
      "name": "Object_5",
      "primitives": [
        {
          "attributes": {
            "NORMAL": 16,
            "POSITION": 15
          },
          "indices": 17,
          "material": 5,
          "mode": 4
        }
      ]
    },
    {
      "name": "Object_6",
      "primitives": [
        {
          "attributes": {
            "NORMAL": 19,
            "POSITION": 18
          },
          "indices": 20,
          "material": 6,
          "mode": 4
        }
      ]
    },
    {
      "name": "Object_7",
      "primitives": [
        {
          "attributes": {
            "NORMAL": 22,
            "POSITION": 21
          },
          "indices": 23,
          "material": 7,
          "mode": 4
        }
      ]
    }
  ],
  "nodes": [
    {
      "children": [
        1
      ],
      "matrix": [
        0.009218679741024971,
        0.0,
        0.0,
        0.0,
        0.0,
        2.0469581010262796e-18,
        -0.009218679741024971,
        0.0,
        0.0,
        0.009218679741024971,
        2.0469581010262796e-18,
        0.0,
        0.0,
        0.0,
        0.0,
        1.0
      ],
      "name": "Sketchfab_model"
    },
    {
      "children": [
        2,
        3,
        4,
        5,
        6,
        7,
        8,
        9
      ],
      "name": "tinker.obj.cleaner.materialmerger.gles"
    },
    {
      "mesh": 0,
      "name": "Object_2"
    },
    {
      "mesh": 1,
      "name": "Object_3"
    },
    {
      "mesh": 2,
      "name": "Object_4"
    },
    {
      "mesh": 3,
      "name": "Object_5"
    },
    {
      "mesh": 4,
      "name": "Object_6"
    },
    {
      "mesh": 5,
      "name": "Object_7"
    },
    {
      "mesh": 6,
      "name": "Object_8"
    },
    {
      "mesh": 7,
      "name": "Object_9"
    }
  ],
  "scene": 0,
  "scenes": [
    {
      "name": "Sketchfab_Scene",
      "nodes": [
        0
      ]
    }
  ]
}
